<?xml version="1.0" encoding="UTF-8" standalone="no"?><!-- Generator: Gravit.io --><svg xmlns="http://www.w3.org/2000/svg" xmlns:xlink="http://www.w3.org/1999/xlink" style="isolation:isolate" viewBox="0 0 270 210" width="270pt" height="210pt"><defs><clipPath id="_clipPath_2SPGfYgqIhFq8weINi5rVbboeBpenqlh"><rect width="270" height="210"/></clipPath></defs><g clip-path="url(#_clipPath_2SPGfYgqIhFq8weINi5rVbboeBpenqlh)"><g style="isolation:isolate"><g><path d=" M 5.379 11.032 C 3.244 32.906 4.921 51.86 10.86 72.957 C 13.583 82.632 15.675 91.094 20.907 99.633 C 38.683 128.636 72.197 144.342 103.115 130.119 C 105.085 129.212 106.718 128.361 108.595 127.261 C 114.892 93.552 103.856 61.462 78.453 39.613 C 68.861 31.363 59.329 26.1 47.397 22.464 L 5.379 11.032 Z " fill="none" vector-effect="non-scaling-stroke" stroke-width="3" stroke="rgb(234,231,177)" stroke-linejoin="miter" stroke-linecap="square" stroke-miterlimit="3"/><path d=" M 261.165 2.562 C 265.74 24.067 266.076 43.097 262.261 64.737 C 260.512 74.661 259.281 83.308 254.827 92.385 C 239.698 123.216 206.935 142.599 173.588 131.938 C 171.462 131.259 169.691 130.596 167.64 129.714 C 157.498 96.913 165.36 63.772 189.113 39.194 C 198.081 29.915 207.313 23.61 219.191 18.654 L 261.165 2.562 Z " fill="none" vector-effect="non-scaling-stroke" stroke-width="3" stroke="rgb(166,187,141)" stroke-linejoin="miter" stroke-linecap="square" stroke-miterlimit="3"/><path d=" M 107.87 128.271 Q 135.305 150.935 136.498 166.441" fill="none" vector-effect="non-scaling-stroke" stroke-width="3" stroke="rgb(234,231,177)" stroke-linejoin="miter" stroke-linecap="square" stroke-miterlimit="3"/><path d=" M 166.319 128.867 Q 138.884 151.531 137.691 167.038" fill="none" vector-effect="non-scaling-stroke" stroke-width="3" stroke="rgb(166,187,141)" stroke-linejoin="miter" stroke-linecap="square" stroke-miterlimit="3"/><mask id="_mask_WxymL3wAraCyesBK2OGPtLXEMqny8BQt"><path d=" M 52.379 63.61 C 63.132 55.085 80.666 59.27 91.51 72.949 C 102.355 86.627 102.429 104.654 91.677 113.179 C 80.924 121.704 63.39 117.519 52.545 103.84 C 41.7 90.161 41.626 72.135 52.379 63.61 Z " fill="white" stroke="none"/></mask><path d=" M 52.379 63.61 C 63.132 55.085 80.666 59.27 91.51 72.949 C 102.355 86.627 102.429 104.654 91.677 113.179 C 80.924 121.704 63.39 117.519 52.545 103.84 C 41.7 90.161 41.626 72.135 52.379 63.61 Z " fill="none"/><path d=" M 52.379 63.61 C 63.132 55.085 80.666 59.27 91.51 72.949 C 102.355 86.627 102.429 104.654 91.677 113.179 C 80.924 121.704 63.39 117.519 52.545 103.84 C 41.7 90.161 41.626 72.135 52.379 63.61 Z " fill="none" mask="url(#_mask_WxymL3wAraCyesBK2OGPtLXEMqny8BQt)" vector-effect="non-scaling-stroke" stroke-width="4" stroke="rgb(234,231,177)" stroke-linejoin="miter" stroke-linecap="square" stroke-miterlimit="3"/><mask id="_mask_Z64RNBUCHLXC24GkZm3t46jA5CPyFmK6"><path d=" M 216.472 57.781 C 204.758 51.241 188.231 58.5 179.59 73.981 C 170.949 89.461 173.443 107.338 185.158 113.877 C 196.872 120.416 213.398 113.157 222.04 97.677 C 230.681 82.197 228.186 64.32 216.472 57.781 Z " fill="white" stroke="none"/></mask><path d=" M 216.472 57.781 C 204.758 51.241 188.231 58.5 179.59 73.981 C 170.949 89.461 173.443 107.338 185.158 113.877 C 196.872 120.416 213.398 113.157 222.04 97.677 C 230.681 82.197 228.186 64.32 216.472 57.781 Z " fill="none"/><path d=" M 216.472 57.781 C 204.758 51.241 188.231 58.5 179.59 73.981 C 170.949 89.461 173.443 107.338 185.158 113.877 C 196.872 120.416 213.398 113.157 222.04 97.677 C 230.681 82.197 228.186 64.32 216.472 57.781 Z " fill="none" mask="url(#_mask_Z64RNBUCHLXC24GkZm3t46jA5CPyFmK6)" vector-effect="non-scaling-stroke" stroke-width="4" stroke="rgb(166,187,141)" stroke-linejoin="miter" stroke-linecap="square" stroke-miterlimit="3"/></g><g clip-path="url(#_clipPath_WoC6z2dNMIdO9YcNx0yWMhRA2MGxzext)"><text transform="matrix(1,0,0,1,14.693,202.906)" style="font-family:'Patua One';font-weight:400;font-size:48px;font-style:normal;fill:#a6bb8d;stroke:none;">Seed</text></g><defs><clipPath id="_clipPath_WoC6z2dNMIdO9YcNx0yWMhRA2MGxzext"><rect x="0" y="0" width="105.07" height="65.526" transform="matrix(1,0,0,1,14.693,156.25)"/></clipPath></defs><g clip-path="url(#_clipPath_GzmBY75cEY6nN80JzYFScX0ukgSuyNoY)"><text transform="matrix(1,0,0,1,115.193,203.495)" style="font-family:'Patua One';font-weight:400;font-size:48px;font-style:normal;fill:#eae7b1;stroke:none;">Starter</text></g><defs><clipPath id="_clipPath_GzmBY75cEY6nN80JzYFScX0ukgSuyNoY"><rect x="0" y="0" width="149" height="58.512" transform="matrix(1,0,0,1,115.193,156.839)"/></clipPath></defs></g></g></svg>